<?xml version="1.0" encoding="utf-8"?>
<!-- Generator: Adobe Illustrator 27.0.0, SVG Export Plug-In . SVG Version: 6.00 Build 0)  -->
<svg version="1.1" id="Layer_1" xmlns="http://www.w3.org/2000/svg" xmlns:xlink="http://www.w3.org/1999/xlink" x="0px" y="0px"
	 viewBox="0 0 1080 1080" style="enable-background:new 0 0 1080 1080;" xml:space="preserve">
<style type="text/css">
	.st0{fill:#F6F6F6;}
	.st1{fill:#B9B89C;}
	.st2{fill:#BF9D84;}
</style>
<g>
	<circle class="st0" cx="681.87" cy="413.31" r="275.39"/>
	<g>
		<g>
			<path class="st1" d="M508.27,936.62c-3.52-2.67-5.28-6.28-5.28-10.85c0-4.04,1.17-7.25,3.51-9.61c2.28-2.34,5.31-3.51,9.08-3.51
				c3.6,0,6.94,0.69,10.03,2.06l1.44-6.27c-3.38-1.24-7.04-1.86-10.97-1.86c-6.68,0-11.91,1.94-15.68,5.82
				c-3.47,3.55-5.2,8.11-5.2,13.7c0,7.26,3.01,12.24,9.03,14.93h-15.1h-1.2h-16.38h-1.2h-16.38h-1.2H436.4h-1.2h-16.38h-1.2h-16.42
				h-1.16h-8.13v-31.48c-5.14-1.98-10.81-2.97-17-2.97c-6.88,0-12.23,2.09-16.05,6.27c-3.49,3.82-5.24,8.72-5.24,14.69
				c0,13.12,7.38,19.68,22.15,19.68h8.5v2.02c0,8.8-5.38,13.2-16.13,13.2c-4.26,0-8.76-0.54-13.49-1.61l-0.54,6.48
				c4.46,0.85,8.86,1.28,13.2,1.28c8.42,0,14.78-2.06,19.1-6.19c3.66-3.49,5.49-8.02,5.49-13.57v-1.61h8.13h1.16h16.42h1.2h16.38
				h1.2h16.38h1.2h16.38h1.2h16.38h1.2h43.24v-6.19h-6.93C517.89,941.04,512.17,939.57,508.27,936.62z M384.29,941.04h-7.43
				c-10.26,0-15.39-4.79-15.39-14.36c0-4.21,1.13-7.58,3.38-10.11c2.25-2.56,5.33-3.84,9.24-3.84c4.04,0,7.44,0.66,10.19,1.98
				V941.04z"/>
			<path class="st1" d="M695.15,906.59c-6.71,0-11.98,2.06-15.8,6.19c-3.55,3.8-5.32,8.61-5.32,14.44c0,6.88,2.09,11.63,6.27,14.27
				c-1.32-0.3-2.96-0.45-4.91-0.45h-5.49h-1.2h-16.38h-1.2h-16.38h-1.2h-16.38h-1.2H599.6h-1.2h-16.42h-1.16h-5.32
				c-0.25-9.71-2.6-17.37-7.05-22.98c-4.24-5.34-10.91-9.42-20.01-12.25l-1.94,6.6c7.43,2.28,12.82,5.69,16.17,10.23
				c3.3,4.48,5,10.62,5.12,18.4h-27.1v6.19h40.14h1.16h16.42h1.2h16.38h1.2h16.38h1.2h16.38h1.2h16.38h1.2h43.32v-21.7
				C713.22,912.9,707.2,906.59,695.15,906.59z M705.63,941.04h-8.37c-10.26,0-15.39-4.76-15.39-14.27c0-4.26,1.13-7.65,3.38-10.15
				c2.25-2.58,5.33-3.88,9.24-3.88c7.43,0,11.14,4.7,11.14,14.11V941.04z"/>
		</g>
		<g>
			<path class="st1" d="M508.27,936.62c-3.52-2.67-5.28-6.28-5.28-10.85c0-4.04,1.17-7.25,3.51-9.61c2.28-2.34,5.31-3.51,9.08-3.51
				c3.6,0,6.94,0.69,10.03,2.06l1.44-6.27c-3.38-1.24-7.04-1.86-10.97-1.86c-6.68,0-11.91,1.94-15.68,5.82
				c-3.47,3.55-5.2,8.11-5.2,13.7c0,7.26,3.01,12.24,9.03,14.93h-15.1h-1.2h-16.38h-1.2h-16.38h-1.2H436.4h-1.2h-16.38h-1.2h-16.42
				h-1.16h-8.13v-31.48c-5.14-1.98-10.81-2.97-17-2.97c-6.88,0-12.23,2.09-16.05,6.27c-3.49,3.82-5.24,8.72-5.24,14.69
				c0,13.12,7.38,19.68,22.15,19.68h8.5v2.02c0,8.8-5.38,13.2-16.13,13.2c-4.26,0-8.76-0.54-13.49-1.61l-0.54,6.48
				c4.46,0.85,8.86,1.28,13.2,1.28c8.42,0,14.78-2.06,19.1-6.19c3.66-3.49,5.49-8.02,5.49-13.57v-1.61h8.13h1.16h16.42h1.2h16.38
				h1.2h16.38h1.2h16.38h1.2h16.38h1.2h43.24v-6.19h-6.93C517.89,941.04,512.17,939.57,508.27,936.62z M384.29,941.04h-7.43
				c-10.26,0-15.39-4.79-15.39-14.36c0-4.21,1.13-7.58,3.38-10.11c2.25-2.56,5.33-3.84,9.24-3.84c4.04,0,7.44,0.66,10.19,1.98
				V941.04z"/>
			<path class="st1" d="M695.15,906.59c-6.71,0-11.98,2.06-15.8,6.19c-3.55,3.8-5.32,8.61-5.32,14.44c0,6.88,2.09,11.63,6.27,14.27
				c-1.32-0.3-2.96-0.45-4.91-0.45h-5.49h-1.2h-16.38h-1.2h-16.38h-1.2h-16.38h-1.2H599.6h-1.2h-16.42h-1.16h-5.32
				c-0.25-9.71-2.6-17.37-7.05-22.98c-4.24-5.34-10.91-9.42-20.01-12.25l-1.94,6.6c7.43,2.28,12.82,5.69,16.17,10.23
				c3.3,4.48,5,10.62,5.12,18.4h-27.1v6.19h40.14h1.16h16.42h1.2h16.38h1.2h16.38h1.2h16.38h1.2h16.38h1.2h43.32v-21.7
				C713.22,912.9,707.2,906.59,695.15,906.59z M705.63,941.04h-8.37c-10.26,0-15.39-4.76-15.39-14.27c0-4.26,1.13-7.65,3.38-10.15
				c2.25-2.58,5.33-3.88,9.24-3.88c7.43,0,11.14,4.7,11.14,14.11V941.04z"/>
		</g>
		<g>
			<path class="st1" d="M353.64,835.06v-38.74H196.04c-4.95,0-9.08-4.12-9.08-9.08v-24.76c0-85.81,54.87-149.76,142.34-149.76h98.61
				c4.95,0,9.08,4.12,9.08,8.66v213.67c0,4.95-4.12,8.66-9.08,8.66h-65.6C357.35,843.73,353.64,840.01,353.64,835.06z
				 M353.64,712.98v-16.5H329.3c-19.39,0-33.01,6.19-41.67,16.5H353.64z"/>
			<path class="st1" d="M457.47,832.31v-31.15c0-107.97,69.04-188.43,179.09-188.43h61.77c5.71,0,10.38,5.19,10.38,10.9v83.06
				c0,5.71-4.67,11.42-10.38,11.42h-61.77c-24.4,0-41.53,7.78-52.43,20.76h114.2c5.71,0,10.38,4.67,10.38,10.9v82.54
				c0,6.23-4.67,11.42-10.38,11.42H468.89C462.66,843.73,457.47,838.54,457.47,832.31z"/>
			<path class="st1" d="M425.56,590.91H196.12c-5.71,0-10.38-5.19-10.38-11.42v-82.54c0-6.23,4.67-10.9,10.38-10.9h114.2
				c-10.9-12.98-28.03-20.76-52.43-20.76h-61.77c-5.71,0-10.38-5.71-10.38-11.42v-83.06c0-5.71,4.67-10.9,10.38-10.9h61.77
				c110.05,0,179.09,80.46,179.09,188.43v31.15C436.98,585.72,431.79,590.91,425.56,590.91z"/>
			<path class="st1" d="M529.63,359.91h-61.77c-5.71,0-10.38,5.19-10.38,10.9v54.98v28.08v43.09v33.54v49
				c0,6.23,4.67,11.42,10.38,11.42H697.3c6.23,0,11.42-5.19,11.42-11.42v-31.15C708.72,440.37,639.68,359.91,529.63,359.91z
				 M513.16,486.05v-20.76h16.47c24.4,0,41.53,7.78,52.43,20.76H513.16z"/>
		</g>
	</g>
	<g>
		<circle class="st2" cx="852.3" cy="275.58" r="15.79"/>
		<g>
			<g>
				<path class="st2" d="M523.12,283.03c-0.19-0.34-0.36-0.68-0.53-1.02c-0.16-0.34-0.31-0.68-0.43-1.03l-12.75-36
					c-0.1-0.33-0.13-0.59-0.05-0.76c0.06-0.19,0.2-0.39,0.41-0.63l1.58-1.82l36.12,31.4l-2,2.29l-30.78-26.76
					c-0.44-0.38-0.89-0.81-1.34-1.29l12.88,36.16c0.25,0.62,0.16,1.16-0.22,1.6l-0.36,0.41c-0.36,0.43-0.89,0.58-1.54,0.44
					l-37.96-7.36c0.53,0.37,1.04,0.77,1.51,1.16l30.77,26.76l-1.97,2.27l-36.11-31.39l1.55-1.79c0.21-0.23,0.4-0.41,0.57-0.51
					c0.18-0.09,0.44-0.12,0.78-0.06l37.78,7.25C521.72,282.52,522.42,282.74,523.12,283.03z"/>
				<path class="st2" d="M586.33,246.02l-2.2,1.52c-0.26,0.18-0.53,0.26-0.79,0.23c-0.26-0.03-0.51-0.12-0.75-0.27l-12.55-8.25
					l-19.35,13.33l3.26,14.63c0.07,0.26,0.06,0.52-0.03,0.79c-0.08,0.28-0.25,0.51-0.51,0.69l-2.17,1.49l-11.03-50.52l2.84-1.96
					L586.33,246.02z M550.09,249.88l17.65-12.16l-21.76-14.37c-0.35-0.22-0.72-0.49-1.13-0.8c-0.41-0.31-0.83-0.65-1.27-1
					c0.18,0.53,0.34,1.04,0.49,1.54c0.14,0.48,0.26,0.95,0.36,1.36L550.09,249.88z"/>
				<path class="st2" d="M619.17,206.95c1.37,3.44,2.1,6.74,2.15,9.88c0.07,3.16-0.45,6.06-1.55,8.74
					c-1.09,2.66-2.73,5.04-4.92,7.09c-2.18,2.06-4.86,3.73-8.03,4.98l-16.2,6.45l-17.7-44.46l16.21-6.45
					c3.17-1.26,6.26-1.89,9.26-1.9c3.01-0.01,5.82,0.59,8.45,1.77c2.63,1.18,5.01,2.95,7.12,5.28
					C616.07,200.68,617.82,203.54,619.17,206.95z M615.83,208.28c-1.22-3.1-2.76-5.69-4.59-7.79c-1.83-2.09-3.85-3.66-6.07-4.71
					c-2.22-1.06-4.61-1.59-7.17-1.6c-2.54,0-5.17,0.53-7.84,1.6l-12.98,5.16l15.6,39.24l12.99-5.16c2.68-1.07,4.94-2.48,6.8-4.23
					c1.85-1.75,3.23-3.78,4.1-6.08c0.91-2.29,1.29-4.83,1.19-7.6C617.75,214.35,617.08,211.4,615.83,208.28z"/>
				<path class="st2" d="M670.15,173.34l2.86,0.26c0.66,0.05,1.04,0.4,1.16,1.02l8.57,40.24c0.1,0.46,0.18,0.96,0.23,1.48
					c0.04,0.52,0.11,1.07,0.17,1.64c0.16-0.55,0.32-1.08,0.48-1.59c0.16-0.5,0.34-0.97,0.53-1.41l16.94-37.98
					c0.11-0.24,0.28-0.44,0.53-0.6c0.23-0.16,0.52-0.22,0.84-0.2l0.93,0.09c0.32,0.03,0.57,0.13,0.76,0.32
					c0.19,0.19,0.32,0.42,0.41,0.7l10.01,40.36c0.13,0.47,0.22,0.96,0.3,1.46c0.08,0.51,0.15,1.03,0.22,1.6
					c0.16-0.52,0.3-1.03,0.44-1.53c0.14-0.5,0.28-0.97,0.47-1.41l15.48-38.11c0.09-0.25,0.25-0.45,0.52-0.61
					c0.25-0.16,0.52-0.22,0.85-0.19l2.62,0.22l-19.2,46.35l-3.1-0.28l-10.43-42.6c-0.13-0.55-0.24-1.14-0.31-1.76
					c-0.19,0.6-0.41,1.16-0.63,1.67l-17.76,40.13l-3.06-0.27L670.15,173.34z"/>
				<path class="st2" d="M783.63,223.01c-1.36,3.44-3.1,6.36-5.23,8.75c-2.13,2.39-4.52,4.2-7.18,5.45
					c-2.65,1.24-5.48,1.89-8.5,1.94c-3.04,0.05-6.12-0.54-9.31-1.79c-3.11-1.23-5.76-2.91-7.93-5.02c-2.17-2.1-3.8-4.52-4.89-7.24
					c-1.08-2.71-1.58-5.67-1.52-8.88c0.08-3.21,0.78-6.54,2.15-9.97c1.35-3.42,3.1-6.32,5.23-8.71c2.16-2.39,4.55-4.21,7.2-5.45
					c2.65-1.24,5.48-1.9,8.52-1.96c3.03-0.06,6.11,0.53,9.24,1.75c3.16,1.26,5.83,2.93,8,5.04c2.17,2.1,3.79,4.53,4.87,7.25
					c1.08,2.73,1.58,5.7,1.51,8.9C785.7,216.29,784.99,219.6,783.63,223.01z M780.3,221.69c1.22-3.1,1.9-6.05,2.02-8.87
					c0.12-2.81-0.26-5.38-1.15-7.73c-0.89-2.33-2.24-4.4-4.09-6.17c-1.84-1.79-4.1-3.21-6.79-4.27c-2.64-1.04-5.23-1.54-7.8-1.49
					c-2.54,0.04-4.95,0.61-7.22,1.71c-2.25,1.1-4.31,2.71-6.16,4.84c-1.85,2.12-3.39,4.74-4.61,7.85c-1.22,3.13-1.91,6.09-2,8.9
					c-0.11,2.8,0.29,5.38,1.2,7.73c0.9,2.35,2.27,4.4,4.11,6.17c1.83,1.77,4.07,3.17,6.71,4.22c2.68,1.06,5.3,1.58,7.86,1.54
					c2.57-0.03,4.97-0.6,7.21-1.7c2.24-1.1,4.28-2.72,6.11-4.84C777.54,227.45,779.06,224.81,780.3,221.69z"/>
			</g>
			<g>
				<g>
					<path class="st2" d="M642.18,177.53c1.8-0.31,3.54-0.36,5.23-0.14c1.69,0.22,3.23,0.72,4.61,1.51
						c1.39,0.78,2.57,1.86,3.54,3.23c0.97,1.36,1.63,3.03,1.97,4.98c0.27,1.54,0.27,2.96,0.01,4.27c-0.26,1.32-0.72,2.51-1.4,3.59
						c-0.66,1.09-1.51,2.04-2.54,2.87c-1.02,0.83-2.16,1.53-3.44,2.1c3.57,0.04,6.42,0.92,8.55,2.65c2.12,1.72,3.45,4.1,3.98,7.14
						c0.34,1.93,0.26,3.79-0.22,5.59c-0.49,1.79-1.3,3.4-2.44,4.84c-1.15,1.43-2.58,2.65-4.31,3.65c-1.72,1.01-3.67,1.69-5.81,2.07
						c-2.69,0.47-4.99,0.5-6.9,0.09c-1.92-0.4-3.56-1.08-4.92-2.04c-1.35-0.96-2.48-2.08-3.37-3.41c-0.9-1.31-1.66-2.65-2.32-4
						l1.18-0.75c0.25-0.16,0.49-0.27,0.73-0.31c0.24-0.04,0.49-0.02,0.73,0.05c0.24,0.07,0.44,0.24,0.61,0.53l0.34,0.62
						c0.21,0.4,0.48,0.85,0.83,1.4c0.34,0.54,0.77,1.1,1.27,1.66c0.49,0.57,1.09,1.12,1.78,1.65c0.69,0.53,1.49,0.97,2.41,1.33
						c0.92,0.35,1.97,0.59,3.14,0.7c1.18,0.12,2.5,0.04,3.96-0.21c2-0.35,3.69-0.98,5.07-1.92c1.38-0.92,2.49-1.99,3.32-3.2
						c0.83-1.22,1.38-2.5,1.66-3.86c0.27-1.37,0.31-2.65,0.09-3.85c-0.25-1.44-0.72-2.75-1.39-3.92c-0.67-1.16-1.62-2.1-2.85-2.8
						c-1.22-0.72-2.75-1.18-4.58-1.4c-1.84-0.22-4.02-0.1-6.58,0.34l-0.41-2.3c2.03-0.4,3.78-0.98,5.25-1.76
						c1.47-0.78,2.64-1.67,3.54-2.73c0.89-1.04,1.5-2.22,1.82-3.51c0.32-1.29,0.36-2.66,0.11-4.1c-0.29-1.67-0.83-3.06-1.6-4.19
						c-0.77-1.13-1.69-2.01-2.77-2.64c-1.07-0.64-2.26-1.03-3.57-1.19c-1.31-0.16-2.64-0.13-3.99,0.11
						c-1.49,0.26-2.82,0.72-3.98,1.39c-1.16,0.66-2.16,1.47-2.97,2.43c-0.82,0.97-1.45,2.08-1.9,3.31c-0.44,1.23-0.71,2.57-0.78,4
						c-0.04,0.8-0.38,1.26-1.03,1.37c-0.16,0.03-0.28,0.04-0.37,0.03l-1.68,0.03c-0.06-2.07,0.18-3.98,0.72-5.68
						c0.54-1.73,1.35-3.24,2.43-4.55c1.07-1.32,2.39-2.39,3.96-3.25C638.5,178.47,640.25,177.87,642.18,177.53z"/>
				</g>
			</g>
		</g>
		<g>
			<g>
				<path class="st2" d="M889.86,379.77c0.38,0.08,0.76,0.16,1.13,0.25c0.36,0.08,0.72,0.18,1.06,0.3L928,393.21
					c0.32,0.14,0.53,0.28,0.62,0.46c0.1,0.16,0.17,0.4,0.23,0.71l0.41,2.37l-47.16,8.11l-0.52-3l40.19-6.91
					c0.58-0.1,1.2-0.17,1.85-0.22l-36.15-12.9c-0.63-0.22-0.99-0.61-1.1-1.18l-0.09-0.53c-0.1-0.55,0.11-1.05,0.64-1.47l29.71-24.75
					c-0.63,0.18-1.25,0.32-1.85,0.42l-40.19,6.91l-0.51-2.96l47.16-8.11l0.4,2.33c0.05,0.3,0.06,0.56,0.03,0.76
					c-0.03,0.22-0.18,0.42-0.44,0.66l-29.52,24.66C891.15,379,890.53,379.4,889.86,379.77z"/>
				<path class="st2" d="M878.54,452.13l0.22-2.66c0.03-0.31,0.13-0.56,0.31-0.75c0.19-0.18,0.41-0.33,0.7-0.41l14.31-4.49
					l1.92-23.42l-13.4-6.73c-0.23-0.12-0.43-0.29-0.6-0.53c-0.16-0.23-0.22-0.52-0.21-0.83l0.22-2.63l46.1,23.42l-0.28,3.44
					L878.54,452.13z M898.48,421.63l-1.75,21.37l24.89-7.77c0.4-0.12,0.85-0.26,1.35-0.36c0.49-0.12,1.02-0.23,1.57-0.34
					c-0.53-0.21-1.03-0.41-1.5-0.6c-0.47-0.2-0.9-0.39-1.28-0.58L898.48,421.63z"/>
				<path class="st2" d="M887.9,502.59c-3.54-1.12-6.53-2.65-9.01-4.6c-2.48-1.96-4.41-4.2-5.77-6.73
					c-1.37-2.54-2.16-5.31-2.37-8.31c-0.2-2.99,0.22-6.12,1.24-9.37l5.29-16.62l45.6,14.48l-5.29,16.64
					c-1.03,3.24-2.5,6.03-4.39,8.36c-1.91,2.33-4.15,4.14-6.73,5.42c-2.59,1.28-5.45,2.01-8.61,2.16
					C894.72,504.18,891.39,503.69,887.9,502.59z M888.97,499.17c3.18,1.01,6.15,1.47,8.93,1.38s5.28-0.66,7.5-1.71
					c2.22-1.06,4.15-2.57,5.77-4.54c1.62-1.97,2.86-4.33,3.73-7.07l4.23-13.31l-40.25-12.8l-4.23,13.31
					c-0.87,2.76-1.22,5.41-1.03,7.94c0.18,2.54,0.88,4.88,2.1,7.04c1.2,2.14,2.91,4.05,5.13,5.73
					C883.07,496.81,885.77,498.16,888.97,499.17z"/>
				<path class="st2" d="M881.8,563.02l-2.01,2.07c-0.45,0.46-0.96,0.55-1.52,0.26l-36.59-18.81c-0.41-0.23-0.85-0.48-1.28-0.77
					c-0.45-0.29-0.91-0.59-1.39-0.9c0.32,0.47,0.64,0.93,0.92,1.37c0.29,0.44,0.54,0.88,0.76,1.3l18.71,37.14
					c0.11,0.23,0.16,0.49,0.13,0.78c-0.03,0.28-0.15,0.54-0.37,0.77l-0.66,0.67c-0.22,0.22-0.47,0.35-0.73,0.38
					c-0.27,0.03-0.53-0.01-0.8-0.11l-37.6-17.77c-0.43-0.2-0.87-0.42-1.31-0.68c-0.44-0.26-0.91-0.54-1.38-0.85
					c0.3,0.45,0.6,0.88,0.91,1.31c0.3,0.41,0.56,0.84,0.8,1.24l19.72,36.1c0.13,0.22,0.18,0.47,0.15,0.78
					c-0.04,0.29-0.17,0.55-0.39,0.78l-1.84,1.89l-23.76-44.18l2.17-2.23l39.59,18.88c0.52,0.24,1.03,0.53,1.57,0.86
					c-0.34-0.53-0.64-1.04-0.91-1.54l-19.84-39.14l2.15-2.21L881.8,563.02z"/>
				<path class="st2" d="M771.54,619.51c-1.81-3.23-2.96-6.42-3.46-9.58c-0.51-3.16-0.41-6.17,0.31-9.02
					c0.72-2.84,2.01-5.43,3.88-7.81c1.87-2.38,4.29-4.41,7.27-6.05c2.92-1.64,5.9-2.64,8.9-2.99c3.01-0.34,5.91-0.09,8.69,0.79
					c2.79,0.89,5.42,2.37,7.86,4.45c2.44,2.08,4.56,4.74,6.37,7.98c1.79,3.2,2.93,6.39,3.42,9.56c0.49,3.16,0.39,6.17-0.33,9.01
					c-0.71,2.84-2.01,5.45-3.87,7.83c-1.86,2.39-4.27,4.41-7.2,6.05c-2.97,1.66-5.96,2.66-8.96,3.02c-3.01,0.35-5.92,0.08-8.71-0.81
					c-2.79-0.9-5.42-2.39-7.84-4.47C775.45,625.38,773.33,622.72,771.54,619.51z M774.67,617.76c1.63,2.91,3.49,5.3,5.6,7.18
					c2.1,1.86,4.34,3.2,6.71,3.99c2.36,0.79,4.82,1.04,7.36,0.75c2.54-0.3,5.07-1.16,7.6-2.57c2.48-1.38,4.51-3.08,6.09-5.09
					c1.58-2.01,2.66-4.23,3.24-6.67c0.59-2.44,0.63-5.05,0.16-7.84c-0.49-2.78-1.54-5.62-3.16-8.53c-1.64-2.94-3.52-5.34-5.62-7.18
					c-2.1-1.86-4.36-3.19-6.74-3.98c-2.39-0.78-4.85-1.02-7.37-0.72c-2.54,0.3-5.04,1.15-7.52,2.54c-2.51,1.41-4.57,3.11-6.17,5.11
					c-1.6,2-2.67,4.23-3.23,6.65c-0.56,2.43-0.6,5.03-0.12,7.8C771.96,611.98,773.02,614.83,774.67,617.76z"/>
			</g>
			<g>
				<g>
					<path class="st2" d="M899.48,532.64c-0.57,1.74-1.34,3.3-2.33,4.68c-0.99,1.39-2.16,2.51-3.51,3.35
						c-1.34,0.85-2.85,1.39-4.5,1.6c-1.66,0.21-3.43,0-5.33-0.61c-1.47-0.48-2.73-1.16-3.76-2c-1.03-0.85-1.88-1.83-2.51-2.92
						c-0.64-1.1-1.08-2.29-1.35-3.6c-0.24-1.28-0.32-2.63-0.22-4.02c-1.72,3.14-3.84,5.23-6.36,6.3c-2.52,1.06-5.24,1.11-8.18,0.15
						c-1.86-0.61-3.47-1.55-4.81-2.83c-1.36-1.28-2.4-2.76-3.12-4.43c-0.72-1.69-1.12-3.53-1.2-5.53c-0.07-1.99,0.23-4.03,0.91-6.1
						c0.85-2.6,1.91-4.64,3.17-6.13c1.27-1.5,2.63-2.62,4.11-3.37c1.48-0.74,3.01-1.21,4.61-1.37c1.57-0.16,3.11-0.22,4.62-0.16
						l0.09,1.39c0.03,0.29,0,0.55-0.08,0.79c-0.07,0.23-0.2,0.44-0.38,0.62c-0.17,0.18-0.43,0.28-0.77,0.28l-0.71,0.02
						c-0.44,0.01-0.97,0.03-1.61,0.09c-0.65,0.04-1.34,0.16-2.08,0.33c-0.72,0.17-1.49,0.44-2.28,0.8c-0.8,0.35-1.56,0.85-2.31,1.5
						c-0.74,0.65-1.45,1.46-2.1,2.44c-0.66,0.98-1.22,2.18-1.69,3.6c-0.63,1.92-0.86,3.72-0.68,5.37c0.16,1.66,0.59,3.14,1.26,4.43
						c0.68,1.31,1.55,2.41,2.61,3.29c1.09,0.88,2.2,1.52,3.35,1.9c1.39,0.45,2.77,0.66,4.11,0.61c1.35-0.04,2.61-0.44,3.82-1.18
						c1.21-0.74,2.35-1.87,3.4-3.39c1.05-1.52,1.97-3.51,2.79-5.98l2.22,0.73c-0.6,1.98-0.91,3.8-0.91,5.46
						c-0.01,1.66,0.23,3.13,0.74,4.42c0.51,1.28,1.25,2.36,2.23,3.26c0.99,0.9,2.19,1.57,3.57,2.02c1.61,0.53,3.09,0.72,4.44,0.57
						c1.36-0.14,2.57-0.53,3.63-1.19s1.97-1.51,2.74-2.59c0.75-1.09,1.35-2.28,1.78-3.58c0.47-1.44,0.69-2.83,0.65-4.17
						c-0.03-1.35-0.28-2.6-0.74-3.77c-0.48-1.18-1.15-2.25-2.04-3.23c-0.87-0.97-1.92-1.83-3.16-2.56
						c-0.69-0.42-0.93-0.94-0.73-1.56c0.05-0.15,0.09-0.27,0.16-0.34l0.77-1.5c1.85,0.92,3.42,2.03,4.67,3.32
						c1.26,1.29,2.22,2.73,2.86,4.29c0.66,1.56,0.98,3.24,1,5.03C900.39,528.96,900.09,530.78,899.48,532.64z"/>
				</g>
			</g>
		</g>
	</g>
</g>
</svg>
